<svg width="70" height="70" viewBox="0 0 70 70" fill="none" xmlns="http://www.w3.org/2000/svg">
<g clip-path="url(#clip0_12_823)">
<path d="M35.0002 5.83333C18.9002 5.83333 5.8335 18.9 5.8335 35C5.8335 51.1 18.9002 64.1667 35.0002 64.1667C51.1002 64.1667 64.1668 51.1 64.1668 35C64.1668 18.9 51.1002 5.83333 35.0002 5.83333ZM35.0002 17.5C40.6293 17.5 45.2085 22.0792 45.2085 27.7083C45.2085 33.3375 40.6293 37.9167 35.0002 37.9167C29.371 37.9167 24.7918 33.3375 24.7918 27.7083C24.7918 22.0792 29.371 17.5 35.0002 17.5ZM35.0002 58.3333C29.0793 58.3333 22.0793 55.9417 17.0918 49.9333C22.021 46.0833 28.2335 43.75 35.0002 43.75C41.7668 43.75 47.9793 46.0833 52.9085 49.9333C47.921 55.9417 40.921 58.3333 35.0002 58.3333Z" fill="#D9D9D9"/>
</g>
<defs>
<clipPath id="clip0_12_823">
<rect width="70" height="70" fill="white"/>
</clipPath>
</defs>
</svg>
