<svg width="34" height="34" viewBox="0 0 34 34" fill="none" xmlns="http://www.w3.org/2000/svg">
<g clip-path="url(#clip0_9_348)">
<path d="M23.3748 8.49996V24.7916C23.3748 27.9225 20.839 30.4583 17.7082 30.4583C14.5773 30.4583 12.0415 27.9225 12.0415 24.7916V7.08329C12.0415 5.12829 13.6282 3.54163 15.5832 3.54163C17.5382 3.54163 19.1248 5.12829 19.1248 7.08329V21.9583C19.1248 22.7375 18.4873 23.375 17.7082 23.375C16.929 23.375 16.2915 22.7375 16.2915 21.9583V8.49996H14.1665V21.9583C14.1665 23.9133 15.7532 25.5 17.7082 25.5C19.6632 25.5 21.2498 23.9133 21.2498 21.9583V7.08329C21.2498 3.95246 18.714 1.41663 15.5832 1.41663C12.4523 1.41663 9.9165 3.95246 9.9165 7.08329V24.7916C9.9165 29.0983 13.4015 32.5833 17.7082 32.5833C22.0148 32.5833 25.4998 29.0983 25.4998 24.7916V8.49996H23.3748Z" fill="#9E9E9E"/>
</g>
<defs>
<clipPath id="clip0_9_348">
<rect width="34" height="34" fill="white"/>
</clipPath>
</defs>
</svg>
