<svg width="40" height="40" viewBox="0 0 40 40" fill="none" xmlns="http://www.w3.org/2000/svg">
<g clip-path="url(#clip0_9_341)">
<path d="M9.99984 16.6667C8.1665 16.6667 6.6665 18.1667 6.6665 20C6.6665 21.8334 8.1665 23.3334 9.99984 23.3334C11.8332 23.3334 13.3332 21.8334 13.3332 20C13.3332 18.1667 11.8332 16.6667 9.99984 16.6667ZM29.9998 16.6667C28.1665 16.6667 26.6665 18.1667 26.6665 20C26.6665 21.8334 28.1665 23.3334 29.9998 23.3334C31.8332 23.3334 33.3332 21.8334 33.3332 20C33.3332 18.1667 31.8332 16.6667 29.9998 16.6667ZM19.9998 16.6667C18.1665 16.6667 16.6665 18.1667 16.6665 20C16.6665 21.8334 18.1665 23.3334 19.9998 23.3334C21.8332 23.3334 23.3332 21.8334 23.3332 20C23.3332 18.1667 21.8332 16.6667 19.9998 16.6667Z" fill="#0062CC"/>
</g>
<defs>
<clipPath id="clip0_9_341">
<rect width="40" height="40" fill="white"/>
</clipPath>
</defs>
</svg>
